<svg xmlns="http://www.w3.org/2000/svg" viewBox="0 0 96 96" role="img" aria-label="Ammo Bandolier">
    <g transform="rotate(-24 48 48)">
      <rect x="4" y="40" width="88" height="17" rx="4" fill="#f7f2e8"/>
      <rect x="14" y="36" width="7" height="14" rx="2" fill="#b68a2d"/><rect x="14" y="44" width="7" height="10" rx="2" fill="#0a0a0a" opacity="0.35"/><rect x="26" y="36" width="7" height="14" rx="2" fill="#b68a2d"/><rect x="26" y="44" width="7" height="10" rx="2" fill="#0a0a0a" opacity="0.35"/><rect x="38" y="36" width="7" height="14" rx="2" fill="#b68a2d"/><rect x="38" y="44" width="7" height="10" rx="2" fill="#0a0a0a" opacity="0.35"/><rect x="50" y="36" width="7" height="14" rx="2" fill="#b68a2d"/><rect x="50" y="44" width="7" height="10" rx="2" fill="#0a0a0a" opacity="0.35"/><rect x="62" y="36" width="7" height="14" rx="2" fill="#b68a2d"/><rect x="62" y="44" width="7" height="10" rx="2" fill="#0a0a0a" opacity="0.35"/><rect x="74" y="36" width="7" height="14" rx="2" fill="#b68a2d"/><rect x="74" y="44" width="7" height="10" rx="2" fill="#0a0a0a" opacity="0.35"/>
    </g>
</svg>
