<svg xmlns="http://www.w3.org/2000/svg" viewBox="0 0 96 96" role="img" aria-label="Molotov Cocktail">
    <path d="M52 10 Q60 16 56 24 Q52 30 55 34 Q60 26 63 30 Q66 20 58 12 Q56 8 52 10 Z" fill="#b68a2d"/>
    <rect x="42" y="24" width="10" height="14" fill="#f7f2e8"/>
    <rect x="40" y="20" width="14" height="7" rx="3" fill="#b68a2d"/>
    <path d="M36 38 Q30 44 30 54 L30 70 Q30 78 38 78 L56 78 Q64 78 64 70 L64 54 Q64 44 58 38 Z" fill="#f7f2e8"/>
    <line x1="34" y1="56" x2="60" y2="56" stroke="#0a0a0a" stroke-opacity="0.25" fill="none" stroke-width="2.5"/>
    <path d="M36 64 Q47 70 58 64" stroke="#0a0a0a" stroke-opacity="0.25" fill="none" stroke-width="2.5"/>
</svg>
