<svg xmlns="http://www.w3.org/2000/svg" viewBox="0 0 96 96" role="img" aria-label="Scoped Springfield">
    <polygon points="8,58 24,32 32,32 32,44 18,62" fill="#f7f2e8"/>
    <rect x="28" y="31" width="24" height="11" rx="2" fill="#f7f2e8"/>
    <rect x="44" y="33" width="44" height="4" rx="2" fill="#f7f2e8"/>
    
    <rect x="48" y="38" width="16" height="5" rx="2" fill="#b68a2d"/>
    <rect x="34" y="21" width="26" height="8" rx="4" fill="#f7f2e8"/>
      <rect x="42" y="27" width="4" height="6" fill="#f7f2e8"/><rect x="52" y="27" width="4" height="6" fill="#f7f2e8"/>
      <circle cx="60" cy="25" r="4" fill="none" stroke="#b68a2d" stroke-width="2.5"/>
    <rect x="86" y="30" width="3" height="5" fill="#f7f2e8"/>
    <polygon points="34,42 44,42 42,56 32,54" fill="#f7f2e8"/>
    <circle cx="49" cy="48" r="5" fill="none" stroke="#f7f2e8" stroke-width="3"/>
    <line x1="32" y1="35" x2="82" y2="35" stroke="#0a0a0a" stroke-opacity="0.25" fill="none" stroke-width="2"/>
</svg>
