<svg xmlns="http://www.w3.org/2000/svg" viewBox="0 0 96 96" role="img" aria-label="The Chicago Organ">
    <polygon points="6,56 22,32 30,32 30,44 16,60" fill="#f7f2e8"/>
    <rect x="26" y="30" width="34" height="13" rx="2" fill="#f7f2e8"/>
    <rect x="58" y="32" width="30" height="8" rx="2" fill="#f7f2e8"/>
    <rect x="84" y="28" width="6" height="16" rx="2" fill="#f7f2e8"/>
    <ellipse cx="42" cy="26" rx="14" ry="6" fill="#f7f2e8"/><ellipse cx="42" cy="26" rx="7" ry="3" fill="#0a0a0a" opacity="0.25"/><circle cx="42" cy="26" r="2" fill="#edc553"/>
    <line x1="62" y1="40" x2="52" y2="66" stroke="#f7f2e8" stroke-width="4" stroke-linecap="round"/>
    <line x1="70" y1="40" x2="78" y2="66" stroke="#f7f2e8" stroke-width="4" stroke-linecap="round"/>
    <polygon points="30,43 40,43 38,56 28,54" fill="#f7f2e8"/>
    <line x1="30" y1="34" x2="80" y2="34" stroke="#0a0a0a" stroke-opacity="0.25" fill="none" stroke-width="2"/>
    <rect x="56" y="30" width="4" height="13" fill="#edc553"/>
</svg>
