<svg xmlns="http://www.w3.org/2000/svg" viewBox="0 0 96 96" role="img" aria-label="Tranquilizer Darts">
    
    <g transform="rotate(-18 48 52)">
      <rect x="26" y="28" width="7" height="26" rx="2" fill="#f7f2e8"/>
      <polygon points="26,54 33,54 29.5,70" fill="#b68a2d"/>
      <path d="M24 28 L27 18 L29.5 26 L32 18 L35 28 Z" fill="#f7f2e8" opacity="0.85"/>
    </g>
    <g transform="rotate(0 48 52)">
      <rect x="42" y="28" width="7" height="26" rx="2" fill="#f7f2e8"/>
      <polygon points="42,54 49,54 45.5,70" fill="#b68a2d"/>
      <path d="M40 28 L43 18 L45.5 26 L48 18 L51 28 Z" fill="#f7f2e8" opacity="0.85"/>
    </g>
    <g transform="rotate(18 48 52)">
      <rect x="58" y="28" width="7" height="26" rx="2" fill="#f7f2e8"/>
      <polygon points="58,54 65,54 61.5,70" fill="#b68a2d"/>
      <path d="M56 28 L59 18 L61.5 26 L64 18 L67 28 Z" fill="#f7f2e8" opacity="0.85"/>
    </g>
</svg>
